<svg width="24.000000" height="24.000000" viewBox="0 0 24 24" fill="none" xmlns="http://www.w3.org/2000/svg" xmlns:xlink="http://www.w3.org/1999/xlink">
	<desc>
			Created with Pixso.
	</desc>
	<defs>
		<filter id="filter_64_827_dd" x="-3.003174" y="1.214355" width="30.007324" height="20.339844" filterUnits="userSpaceOnUse" color-interpolation-filters="sRGB">
			<feFlood flood-opacity="0" result="BackgroundImageFix"/>
			<feColorMatrix in="SourceAlpha" type="matrix" values="0 0 0 0 0 0 0 0 0 0 0 0 0 0 0 0 0 0 127 0" result="hardAlpha"/>
			<feOffset dx="0" dy="2"/>
			<feGaussianBlur stdDeviation="1.33333"/>
			<feComposite in2="hardAlpha" operator="out" k2="-1" k3="1"/>
			<feColorMatrix type="matrix" values="0 0 0 0 0 0 0 0 0 0 0 0 0 0 0 0 0 0 0.1 0"/>
			<feBlend mode="normal" in2="BackgroundImageFix" result="effect_dropShadow_1"/>
			<feBlend mode="normal" in="SourceGraphic" in2="effect_dropShadow_1" result="shape"/>
		</filter>
	</defs>
	<mask id="mask_64_825" fill="white">
		<path id="Subtract" d="M2.00024 7.15137L2.00024 16C2.00024 17.6567 3.34351 19 5.00024 19L19.0002 19C20.657 19 22.0002 17.6567 22.0002 16L22.0002 7.15186L14.728 14.4243C13.2217 15.9307 10.7795 15.9307 9.27319 14.4243L2.00024 7.15137ZM21.5725 5.65088C21.5317 5.76221 21.4653 5.86865 21.3706 5.96338L13.8188 13.5151C12.8147 14.519 11.1865 14.519 10.1824 13.5151L2.63062 5.96338C2.53564 5.86816 2.46924 5.76172 2.42847 5.65039C2.88892 4.95703 3.677 4.5 4.57178 4.5L19.429 4.5C20.324 4.5 21.1121 4.95703 21.5725 5.65088Z" clip-rule="evenodd" fill="" fill-opacity="1.000000" fill-rule="evenodd"/>
	</mask>
	<path id="Subtract" d="M2.00024 7.15137L2.00024 16C2.00024 17.6567 3.34351 19 5.00024 19L19.0002 19C20.657 19 22.0002 17.6567 22.0002 16L22.0002 7.15186L14.728 14.4243C13.2217 15.9307 10.7795 15.9307 9.27319 14.4243L2.00024 7.15137ZM21.5725 5.65088C21.5317 5.76221 21.4653 5.86865 21.3706 5.96338L13.8188 13.5151C12.8147 14.519 11.1865 14.519 10.1824 13.5151L2.63062 5.96338C2.53564 5.86816 2.46924 5.76172 2.42847 5.65039C2.88892 4.95703 3.677 4.5 4.57178 4.5L19.429 4.5C20.324 4.5 21.1121 4.95703 21.5725 5.65088Z" clip-rule="evenodd" fill="#FFFFFF" fill-opacity="1.000000" fill-rule="evenodd" mask="url(#mask_64_825)"/>
	<path id="Subtract" d="M21.3706 5.96338C21.4653 5.86865 21.5317 5.76221 21.5725 5.65088C21.1121 4.95703 20.324 4.5 19.429 4.5L4.57178 4.5C3.677 4.5 2.88892 4.95703 2.42847 5.65039C2.46924 5.76172 2.53564 5.86816 2.63062 5.96338L10.1824 13.5151C11.1865 14.519 12.8147 14.519 13.8188 13.5151L21.3706 5.96338ZM3.04474 5.67047L10.5359 13.1616Q10.7059 13.3316 10.9046 13.4557Q11.0546 13.5493 11.2209 13.6167Q11.3905 13.6854 11.5667 13.7229Q11.7789 13.7681 12.0007 13.7681Q12.2207 13.7681 12.4313 13.7236Q12.6092 13.686 12.7803 13.6167Q12.9466 13.5493 13.0966 13.4557Q13.2953 13.3316 13.4653 13.1616L20.9561 5.67084Q20.8943 5.60318 20.8269 5.5416Q20.6452 5.3756 20.4231 5.25391Q20.2068 5.13513 19.9753 5.07192Q19.7119 5 19.429 5L4.57178 5Q4.28777 5 4.02354 5.07229Q3.79307 5.13535 3.57764 5.25342Q3.35643 5.37466 3.17535 5.53988Q3.1072 5.60206 3.04474 5.67047ZM2.00024 7.15137L2.00024 16C2.00024 17.6567 3.34351 19 5.00024 19L19.0002 19C20.657 19 22.0002 17.6567 22.0002 16L22.0002 7.15186L21.5002 7.65187L14.728 14.4243C13.2217 15.9307 10.7795 15.9307 9.27319 14.4243L2.00024 7.15137ZM2.50024 8.3584L2.50024 16Q2.50024 16.284 2.5614 16.5541Q2.6098 16.768 2.69653 16.9731Q2.78285 17.1771 2.90158 17.3601Q3.04376 17.5791 3.23242 17.7681Q3.41758 17.9532 3.63208 18.0936Q3.81862 18.2156 4.02734 18.3037Q4.22833 18.3888 4.4378 18.437Q4.71177 18.5 5.00024 18.5L19.0002 18.5Q19.2887 18.5 19.5627 18.437Q19.7722 18.3888 19.9731 18.3037Q20.1819 18.2156 20.3684 18.0936Q20.5829 17.9532 20.7681 17.7681Q20.9567 17.5791 21.0989 17.3601Q21.2176 17.1771 21.304 16.9731Q21.3907 16.768 21.4391 16.5541Q21.5002 16.284 21.5002 16L21.5002 8.35892L15.0815 14.7778Q14.74 15.1193 14.3425 15.3729Q14.0107 15.5845 13.6399 15.7349Q13.2672 15.8859 12.8798 15.9654Q12.4493 16.0537 12.0007 16.0537Q11.5503 16.0537 11.1182 15.9647Q10.7325 15.8853 10.3613 15.7349Q9.99052 15.5845 9.65875 15.3729Q9.26118 15.1193 8.91968 14.7778L2.50024 8.3584Z" clip-rule="evenodd" fill="#FFFFFF" fill-opacity="0.300000" fill-rule="evenodd"/>
</svg>
