<svg width="24.000000" height="24.000000" viewBox="0 0 24 24" fill="none" xmlns="http://www.w3.org/2000/svg" xmlns:xlink="http://www.w3.org/1999/xlink">
	<desc>
			Created with Pixso.
	</desc>
	<defs/>
	<rect id="24x-github" width="24.000000" height="24.000000" fill="#FFFFFF" fill-opacity="0"/>
	<path id="Vector" d="M12 1C5.92261 1 1 5.81738 1 11.7656C1 16.5293 4.14868 20.5532 8.52124 21.9795C9.07129 22.0737 9.27759 21.7505 9.27759 21.4683C9.27759 21.2124 9.26367 20.3647 9.26367 19.4629C6.5 19.9609 5.78491 18.8037 5.56494 18.1982C5.44116 17.8887 4.90503 16.9331 4.4375 16.6772C4.05249 16.4756 3.50244 15.9775 4.42383 15.9644C5.29004 15.9507 5.90869 16.7446 6.11499 17.0679C7.10498 18.6958 8.68628 18.2383 9.31885 17.9556C9.41504 17.2559 9.70386 16.7852 10.02 16.5161C7.57251 16.2466 5.01489 15.3184 5.01489 11.2002C5.01489 10.0298 5.44116 9.06055 6.14258 8.30713C6.03247 8.03809 5.64746 6.93457 6.25244 5.4541C6.25244 5.4541 7.17383 5.17188 9.27759 6.55762C10.1575 6.31543 11.0925 6.19434 12.0276 6.19434C12.9624 6.19434 13.8975 6.31543 14.7776 6.55762C16.8813 5.1582 17.8025 5.4541 17.8025 5.4541C18.4075 6.93457 18.0225 8.03809 17.9126 8.30713C18.6138 9.06055 19.04 10.0161 19.04 11.2002C19.04 15.3315 16.4688 16.2466 14.0212 16.5161C14.4199 16.8525 14.7637 17.498 14.7637 18.5073C14.7637 19.9473 14.75 21.1045 14.75 21.4683C14.75 21.7505 14.9563 22.0869 15.5063 21.9795C17.6899 21.2583 19.5876 19.8848 20.9321 18.0522C22.2764 16.2202 22.9995 14.0215 23 11.7656C23 5.81738 18.0774 1 12 1Z" fill="#FFFFFF" fill-opacity="1.000000" fill-rule="nonzero"/>
</svg>
