<svg width="24.000000" height="24.000000" viewBox="0 0 24 24" fill="none" xmlns="http://www.w3.org/2000/svg" xmlns:xlink="http://www.w3.org/1999/xlink">
	<desc>
			Created with Pixso.
	</desc>
	<defs/>
	<path id="phone-call" d="M13.9475 5.07324C13.2466 5.77637 13.2466 6.91602 13.9475 7.61914L15.2166 8.89209C15.4712 9.14746 15.7832 9.31006 16.1108 9.37988C16.4617 9.45459 16.7844 9.77051 16.6882 10.1162C16.2434 11.7153 15.3896 13.1704 14.2114 14.3364C13.0334 15.5029 11.5718 16.3398 9.97168 16.7651C9.68311 16.8418 9.4209 16.5757 9.37988 16.2798C9.32764 15.9053 9.1582 15.5444 8.87134 15.2568L7.60205 13.9839C6.90137 13.2808 5.76489 13.2808 5.06396 13.9839L2.52563 16.5298C1.82471 17.2329 1.82471 18.3726 2.52563 19.0757C3.03662 19.5879 3.52271 20.229 4.13989 20.6191C4.802 21.0186 5.66675 20.9644 6.43945 20.9902C7.71558 21.0322 9.70459 20.9468 10.9866 20.6064C13.2539 20.0034 15.325 18.8169 16.9944 17.1646C18.6638 15.5117 19.8735 13.4507 20.5042 11.1846C20.9243 9.67432 21 8.36084 21 6.55518C21 5.65234 20.9873 4.76123 20.5059 4.05713C20.4441 3.9668 20.3733 3.88037 20.293 3.80029L19.0239 2.52734C18.323 1.82422 17.1868 1.82422 16.4858 2.52734L13.9475 5.07324Z" fill="#FFFFFF" fill-opacity="1.000000" fill-rule="nonzero"/>
	<path id="phone-call" d="M13.9475 5.07324C13.2466 5.77637 13.2466 6.91602 13.9475 7.61914L15.2166 8.89209C15.4712 9.14746 15.7832 9.31006 16.1108 9.37988C16.4617 9.45459 16.7844 9.77051 16.6882 10.1162C16.2434 11.7153 15.3896 13.1704 14.2114 14.3364C13.0334 15.5029 11.5718 16.3398 9.97168 16.7651C9.68311 16.8418 9.4209 16.5757 9.37988 16.2798C9.32764 15.9053 9.1582 15.5444 8.87134 15.2568L7.60205 13.9839C6.90137 13.2808 5.76489 13.2808 5.06396 13.9839L2.52563 16.5298C1.82471 17.2329 1.82471 18.3726 2.52563 19.0757C3.03662 19.5879 3.52271 20.229 4.13989 20.6191C4.7019 20.9585 5.40991 20.9702 6.0835 20.9819C6.20361 20.9839 6.32251 20.9863 6.43945 20.9902C7.71558 21.0322 9.70459 20.9468 10.9866 20.6064C13.2539 20.0034 15.325 18.8169 16.9944 17.1646C18.6638 15.5117 19.8735 13.4507 20.5042 11.1846C20.9243 9.67432 21 8.36084 21 6.55518C21 5.65234 20.9873 4.76123 20.5059 4.05713C20.4441 3.9668 20.3733 3.88037 20.293 3.80029L19.0239 2.52734C18.323 1.82422 17.1868 1.82422 16.4858 2.52734L13.9475 5.07324ZM14.1189 5.65527Q14.196 5.53174 14.3015 5.42627L16.8398 2.88037Q16.9487 2.771 17.0762 2.69238Q17.1672 2.63574 17.2678 2.59473Q17.3755 2.55127 17.4875 2.52734Q17.6184 2.5 17.7549 2.5Q17.8914 2.5 18.0222 2.52734Q18.1343 2.55127 18.2419 2.59473Q18.3425 2.63574 18.4336 2.69238Q18.561 2.771 18.6699 2.88037L19.939 4.15332Q20.0117 4.22607 20.0715 4.30859Q20.0825 4.32373 20.093 4.33936Q20.3508 4.71631 20.439 5.30566Q20.4775 5.56348 20.491 5.90283Q20.5 6.13428 20.5 6.55518Q20.5 8.01709 20.4119 8.93262Q20.3064 10.0298 20.0225 11.0503Q19.7903 11.8848 19.4531 12.6743Q19.1289 13.4336 18.7075 14.1514Q18.2671 14.9019 17.7354 15.5815Q17.2302 16.2275 16.6426 16.8091Q16.0261 17.4194 15.3403 17.938Q14.6848 18.4336 13.9661 18.8452Q13.2185 19.2734 12.428 19.5967Q11.6631 19.9092 10.8582 20.123Q10.0164 20.3467 8.67505 20.4429Q7.52368 20.5259 6.45605 20.4902Q6.33521 20.4863 6.09229 20.4819Q5.44067 20.4707 5.13989 20.4282Q4.68457 20.3643 4.39819 20.1914Q4.15527 20.0376 3.86597 19.7598Q3.68286 19.584 3.32593 19.1953Q3.03174 18.875 2.87964 18.7227Q2.77441 18.6167 2.69702 18.4932Q2.6377 18.3984 2.59497 18.2925Q2.552 18.186 2.52832 18.0757Q2.5 17.9424 2.5 17.8027Q2.5 17.6631 2.52832 17.5298Q2.552 17.4189 2.59497 17.3125Q2.6377 17.207 2.69727 17.1118Q2.77441 16.9883 2.87964 16.8828L5.41797 14.3369Q5.52686 14.2275 5.6543 14.1489Q5.74536 14.0923 5.84595 14.0518Q5.95386 14.0078 6.06567 13.9839Q6.19653 13.9565 6.33301 13.9565Q6.46973 13.9565 6.60034 13.9839Q6.7124 14.0078 6.82007 14.0518Q6.92065 14.0923 7.01196 14.1489Q7.1394 14.2275 7.24805 14.3369L8.51709 15.6099Q8.67261 15.7656 8.76465 15.9526Q8.85498 16.1357 8.88452 16.3486Q8.89502 16.4238 8.91528 16.4961Q8.94849 16.6147 9.00781 16.7266Q9.07959 16.8608 9.18042 16.9678Q9.2146 17.0044 9.25244 17.0376Q9.37769 17.1475 9.52319 17.2085Q9.57349 17.229 9.62573 17.2441Q9.74341 17.2778 9.86108 17.2788Q9.98047 17.2803 10.1001 17.2485Q10.7234 17.083 11.3154 16.8408Q11.9233 16.5923 12.4983 16.2627Q13.0547 15.9438 13.562 15.5601Q14.0891 15.1611 14.5632 14.6919Q15.0178 14.2417 15.4087 13.7417Q15.8174 13.2188 16.156 12.6416Q16.4834 12.084 16.7346 11.4941Q16.9922 10.8892 17.1699 10.2505Q17.2056 10.1226 17.2061 9.99414Q17.2063 9.86279 17.1694 9.73096Q17.1589 9.69385 17.1458 9.65723Q17.0803 9.47705 16.947 9.32129Q16.9331 9.30469 16.9185 9.28906Q16.7883 9.14746 16.6145 9.0459Q16.4861 8.97119 16.3481 8.92627Q16.2827 8.90527 16.2151 8.89062Q16.0383 8.85303 15.8845 8.77197Q15.7136 8.68213 15.5706 8.53906L14.3015 7.26611Q14.196 7.16016 14.1189 7.03662Q14.0596 6.94189 14.0168 6.83594Q13.9736 6.72949 13.9502 6.61914Q13.9219 6.48584 13.9219 6.34619Q13.9219 6.20654 13.9502 6.07324Q13.9736 5.9624 14.0168 5.85596Q14.0596 5.75049 14.1189 5.65527Z" fill="#FFFFFF" fill-opacity="0.300000" fill-rule="evenodd"/>
</svg>
