<svg width="24.000000" height="24.000000" viewBox="0 0 24 24" fill="none" xmlns="http://www.w3.org/2000/svg" xmlns:xlink="http://www.w3.org/1999/xlink">
	<desc>
			Created with Pixso.
	</desc>
	<defs/>
	<path id="Vector" d="M21.04 3.0249C21.04 3.0249 23.1675 2.20215 22.9895 4.19922C22.9309 5.02197 22.3992 7.90039 21.9851 11.0137L20.5669 20.2368C20.5669 20.2368 20.4485 21.5884 19.3845 21.8232C18.321 22.0576 16.7253 21.001 16.4297 20.7656C16.1931 20.5894 11.9973 17.9458 10.5198 16.6538C10.1057 16.3008 9.63257 15.5962 10.5789 14.7739L16.7839 8.89893C17.4932 8.19434 18.2021 6.54932 15.2473 8.54639L6.9729 14.127C6.9729 14.127 6.0271 14.7148 4.25464 14.1865L0.412598 13.0112C0.412598 13.0112 -1.00586 12.1299 1.41748 11.249C7.32764 8.48779 14.5972 5.66846 21.0388 3.0249L21.04 3.0249Z" fill="#FFFFFF" fill-opacity="1.000000" fill-rule="nonzero"/>
</svg>
